<svg width="137" height="100" viewBox="0 0 137 100" fill="none" xmlns="http://www.w3.org/2000/svg">
<path fill-rule="evenodd" clip-rule="evenodd" d="M53.1385 6.21835C58.1739 6.95748 63.1839 7.84899 68.1613 8.89157C73.1386 7.84896 78.1487 6.95745 83.184 6.21835C78.941 7.82951 74.6298 9.75962 70.08 11.8804C69.5051 12.1491 69.0201 12.5685 68.6808 13.0907C68.3415 13.6129 68.1614 14.2168 68.1613 14.8332C68.1613 13.5738 67.4183 12.4263 66.2425 11.8804C61.6928 9.75962 57.3816 7.82622 53.1385 6.21835ZM68.1613 88.3352C68.1613 90.2357 69.7733 91.6233 71.5693 91.6463V92.2941C92.9345 88.8054 108.029 88.5851 129.506 92.2217V14.7871C127.244 14.2873 124.971 13.8302 122.69 13.416V6.73129C126.187 7.3363 129.847 8.08598 133.743 8.9935C134.479 9.16623 135.134 9.57312 135.602 10.1487C136.07 10.7242 136.324 11.435 136.323 12.1665V96.1412C136.323 98.2225 134.336 99.7745 132.219 99.3865C108.104 94.9476 92.9413 95.2106 68.8156 99.4358C68.383 99.5124 67.9396 99.5124 67.5069 99.4358C43.3813 95.2106 28.2188 94.9476 4.10335 99.3865C3.60606 99.4792 3.0937 99.4651 2.60271 99.3452C2.11169 99.2253 1.65408 99.0026 1.26239 98.6928C0.870697 98.383 0.55452 97.9938 0.336349 97.5528C0.118179 97.1118 0.00335693 96.6298 4.57764e-05 96.1412V12.1698C-0.00227356 11.4377 0.251007 10.7262 0.719055 10.15C1.18709 9.57374 1.84261 9.16636 2.57994 8.9935C6.24002 8.13394 9.92576 7.37954 13.6323 6.73129V13.416C11.4375 13.8106 9.17455 14.2709 6.81616 14.7871V92.2217C28.2938 88.5851 43.3881 88.8021 64.7532 92.2941V91.6463C66.5493 91.62 68.1613 90.2325 68.1613 88.3352Z" fill="#5B5D8B"/>
<path fill-rule="evenodd" clip-rule="evenodd" d="M120.166 7.95014V79.4696C120.16 79.4797 120.151 79.4884 120.141 79.495C120.115 79.5139 120.085 79.5273 120.053 79.5344C120.02 79.5416 119.986 79.5422 119.954 79.5362C101.081 76.4278 86.8976 80.2341 70.7741 86.9267C70.7651 86.93 70.7556 86.9321 70.7459 86.9331H70.7388C70.7237 86.9319 70.7092 86.9276 70.6964 86.9204C70.6927 86.9186 70.6891 86.9164 70.6858 86.914V16.0099C88.2865 8.38469 101.554 3.70299 120.166 7.95014ZM122.025 1.82841C100.752 -3.05945 85.4556 2.56429 67.6039 10.3005C66.4084 10.8195 65.4002 11.6304 64.6951 12.6403C63.9899 13.6502 63.6163 14.8181 63.6172 16.0099V86.9077C63.6172 91.6243 69.0848 94.609 73.7394 92.6805C89.2196 86.2575 101.837 82.9999 118.678 85.7753C122.954 86.4827 127.234 83.6216 127.234 79.4696V7.90256C127.234 5.11131 125.174 2.5516 122.025 1.82841Z" fill="#5B5D8B"/>
<path fill-rule="evenodd" clip-rule="evenodd" d="M16.0535 7.94973V79.4656C16.0599 79.4763 16.0696 79.4851 16.0814 79.4909C16.1065 79.5093 16.1357 79.5225 16.1669 79.5297C16.1982 79.5368 16.2308 79.5376 16.2625 79.5322C34.8597 76.4239 48.832 80.2299 64.7233 86.9223C64.7322 86.9255 64.7416 86.9277 64.7512 86.9286H64.7581C64.773 86.9275 64.7873 86.9231 64.7999 86.9159L64.8104 86.9032V16.0059C47.4668 8.38108 34.393 3.69963 16.0535 7.94973ZM14.2216 1.82832C35.1836 -3.05929 50.2564 2.56416 67.8472 10.3C69.0247 10.8195 70.0177 11.6306 70.7125 12.6403C71.4072 13.65 71.7757 14.8175 71.7756 16.0091V86.9096C71.7756 91.6259 66.388 94.6105 61.8014 92.6789C46.5474 86.2562 34.1144 82.9989 17.5197 85.7741C13.3057 86.4782 9.08823 83.6205 9.08823 79.4656V7.90215C9.08168 6.51431 9.58267 5.16398 10.5122 4.06418C11.4417 2.96439 12.7468 2.17774 14.2216 1.82832ZM113.532 66.6138C100.751 66.4932 93.6222 67.6668 80.0573 72.713L77.4245 66.839C91.7973 61.4946 99.8456 60.1403 113.602 60.2703L113.532 66.6138ZM113.532 53.9269C100.751 53.8064 93.6222 54.9799 80.0573 60.0261L77.4245 54.1521C91.7973 48.8078 99.8456 47.4534 113.602 47.5835L113.532 53.9269ZM113.532 41.2401C100.751 41.1195 93.6222 42.2931 80.0573 47.3393L77.4245 41.4652C91.7973 36.1209 99.8456 34.7666 113.602 34.8966L113.532 41.2401ZM104.861 15.8568V25.372H111.826V15.8568H104.861ZM92.6714 19.0285V28.5437H99.6367V19.0285H92.6714ZM80.4822 22.2002V31.7154H87.4475V22.2002H80.4822Z" fill="#5B5D8B"/>
<path fill-rule="evenodd" clip-rule="evenodd" d="M22.7903 68.6163C35.6334 68.4977 42.7969 69.6528 56.4274 74.6199L59.073 68.838C44.6306 63.5774 36.5433 62.2443 22.7203 62.3723L22.7903 68.6163ZM22.7903 56.1284C35.6334 56.0097 42.7969 57.1649 56.4274 62.132L59.073 56.35C44.6306 51.0894 36.5433 49.7564 22.7203 49.8844L22.7903 56.1284ZM22.7903 43.6404C35.6334 43.5217 42.7969 44.6769 56.4274 49.644L59.073 43.862C44.6306 38.6014 36.5433 37.2684 22.7203 37.3964L22.7903 43.6404ZM31.504 18.655V28.021H24.5051V18.655H31.504ZM43.7522 21.777V31.143H36.7533V21.777H43.7522ZM56.0004 24.899V34.265H49.0015V24.899H56.0004Z" fill="#5B5D8B"/>
</svg>
